<mxfile host="Electron" modified="2024-07-08T09:55:21.379Z" agent="Mozilla/5.0 (Windows NT 10.0; Win64; x64) AppleWebKit/537.36 (KHTML, like Gecko) draw.io/24.6.4 Chrome/124.0.6367.207 Electron/30.0.6 Safari/537.36" etag="15EUati0Tya2NIRJUi1A" version="24.6.4" type="device">
  <diagram name="Page-1" id="p85dP4kiwHz3ok0GlTAY">
    <mxGraphModel dx="1778" dy="420" grid="1" gridSize="10" guides="1" tooltips="1" connect="1" arrows="1" fold="1" page="1" pageScale="1" pageWidth="827" pageHeight="1169" background="none" math="0" shadow="0">
      <root>
        <mxCell id="0" />
        <mxCell id="1" parent="0" />
        <mxCell id="PTV88E-6Afp1OJII5fz0-1" value="Warehouse" style="whiteSpace=wrap;html=1;align=center;rounded=1;" parent="1" vertex="1">
          <mxGeometry x="240" y="220" width="100" height="40" as="geometry" />
        </mxCell>
        <mxCell id="PTV88E-6Afp1OJII5fz0-4" value="Employee" style="whiteSpace=wrap;html=1;align=center;rounded=1;" parent="1" vertex="1">
          <mxGeometry x="620" y="210" width="100" height="40" as="geometry" />
        </mxCell>
        <mxCell id="PTV88E-6Afp1OJII5fz0-6" value="Items" style="whiteSpace=wrap;html=1;align=center;rounded=1;" parent="1" vertex="1">
          <mxGeometry x="250" y="480" width="100" height="40" as="geometry" />
        </mxCell>
        <mxCell id="PTV88E-6Afp1OJII5fz0-7" value="" style="endArrow=none;html=1;rounded=1;entryX=0;entryY=0;entryDx=0;entryDy=0;exitX=0.5;exitY=1;exitDx=0;exitDy=0;" parent="1" source="PTV88E-6Afp1OJII5fz0-10" target="PTV88E-6Afp1OJII5fz0-6" edge="1">
          <mxGeometry relative="1" as="geometry">
            <mxPoint x="390" y="340" as="sourcePoint" />
            <mxPoint x="530" y="400" as="targetPoint" />
          </mxGeometry>
        </mxCell>
        <mxCell id="PTV88E-6Afp1OJII5fz0-9" value="N" style="resizable=0;html=1;whiteSpace=wrap;align=right;verticalAlign=bottom;rounded=1;" parent="1" connectable="0" vertex="1">
          <mxGeometry x="280.0010756329648" y="279.9998430359779" as="geometry" />
        </mxCell>
        <mxCell id="PTV88E-6Afp1OJII5fz0-11" value="" style="endArrow=none;html=1;rounded=1;entryX=0;entryY=0;entryDx=0;entryDy=0;exitX=0.25;exitY=1;exitDx=0;exitDy=0;" parent="1" source="PTV88E-6Afp1OJII5fz0-1" target="PTV88E-6Afp1OJII5fz0-10" edge="1">
          <mxGeometry relative="1" as="geometry">
            <mxPoint x="263" y="260" as="sourcePoint" />
            <mxPoint x="370" y="440" as="targetPoint" />
            <Array as="points">
              <mxPoint x="250" y="350" />
            </Array>
          </mxGeometry>
        </mxCell>
        <mxCell id="PTV88E-6Afp1OJII5fz0-10" value="Has" style="shape=rhombus;perimeter=rhombusPerimeter;whiteSpace=wrap;html=1;align=center;rounded=1;" parent="1" vertex="1">
          <mxGeometry x="190" y="350" width="120" height="60" as="geometry" />
        </mxCell>
        <mxCell id="PTV88E-6Afp1OJII5fz0-13" value="" style="shape=link;html=1;rounded=1;exitX=1;exitY=0.5;exitDx=0;exitDy=0;entryX=0;entryY=0.75;entryDx=0;entryDy=0;" parent="1" source="PTV88E-6Afp1OJII5fz0-5" target="PTV88E-6Afp1OJII5fz0-4" edge="1">
          <mxGeometry relative="1" as="geometry">
            <mxPoint x="414" y="239.5" as="sourcePoint" />
            <mxPoint x="574" y="239.5" as="targetPoint" />
          </mxGeometry>
        </mxCell>
        <mxCell id="PTV88E-6Afp1OJII5fz0-14" value="1" style="resizable=0;html=1;whiteSpace=wrap;align=right;verticalAlign=bottom;rounded=1;" parent="PTV88E-6Afp1OJII5fz0-13" connectable="0" vertex="1">
          <mxGeometry x="1" relative="1" as="geometry" />
        </mxCell>
        <mxCell id="PTV88E-6Afp1OJII5fz0-15" value="" style="shape=link;html=1;rounded=1;exitX=1;exitY=0.5;exitDx=0;exitDy=0;entryX=0;entryY=0.5;entryDx=0;entryDy=0;" parent="1" source="PTV88E-6Afp1OJII5fz0-1" target="PTV88E-6Afp1OJII5fz0-5" edge="1">
          <mxGeometry relative="1" as="geometry">
            <mxPoint x="390" y="240" as="sourcePoint" />
            <mxPoint x="620" y="240" as="targetPoint" />
          </mxGeometry>
        </mxCell>
        <mxCell id="PTV88E-6Afp1OJII5fz0-5" value="Supervisor&amp;nbsp;" style="shape=rhombus;perimeter=rhombusPerimeter;whiteSpace=wrap;html=1;align=center;rounded=1;" parent="1" vertex="1">
          <mxGeometry x="440" y="210" width="120" height="60" as="geometry" />
        </mxCell>
        <mxCell id="PTV88E-6Afp1OJII5fz0-17" value="1" style="resizable=0;html=1;whiteSpace=wrap;align=right;verticalAlign=bottom;rounded=1;" parent="1" connectable="0" vertex="1">
          <mxGeometry x="630" y="250" as="geometry">
            <mxPoint x="-225" y="-13" as="offset" />
          </mxGeometry>
        </mxCell>
        <mxCell id="ju0jBYfU7VfWNbvxmCAG-1" value="Supplier" style="whiteSpace=wrap;html=1;align=center;rounded=1;" vertex="1" parent="1">
          <mxGeometry x="590" y="330" width="100" height="40" as="geometry" />
        </mxCell>
        <mxCell id="ju0jBYfU7VfWNbvxmCAG-3" value="custmoer" style="whiteSpace=wrap;html=1;align=center;rounded=1;" vertex="1" parent="1">
          <mxGeometry x="-40" y="240" width="100" height="40" as="geometry" />
        </mxCell>
        <mxCell id="ju0jBYfU7VfWNbvxmCAG-6" value="OrderSupply" style="whiteSpace=wrap;html=1;align=center;rounded=1;" vertex="1" parent="1">
          <mxGeometry x="480" y="510" width="100" height="40" as="geometry" />
        </mxCell>
        <mxCell id="ju0jBYfU7VfWNbvxmCAG-7" value="" style="endArrow=none;html=1;rounded=1;exitX=1;exitY=1;exitDx=0;exitDy=0;" edge="1" parent="1" source="PTV88E-6Afp1OJII5fz0-1" target="ju0jBYfU7VfWNbvxmCAG-9">
          <mxGeometry relative="1" as="geometry">
            <mxPoint x="510" y="360" as="sourcePoint" />
            <mxPoint x="670" y="360" as="targetPoint" />
          </mxGeometry>
        </mxCell>
        <mxCell id="ju0jBYfU7VfWNbvxmCAG-8" value="N" style="resizable=0;html=1;whiteSpace=wrap;align=right;verticalAlign=bottom;rounded=1;" connectable="0" vertex="1" parent="ju0jBYfU7VfWNbvxmCAG-7">
          <mxGeometry x="1" relative="1" as="geometry">
            <mxPoint x="-98" y="-101" as="offset" />
          </mxGeometry>
        </mxCell>
        <mxCell id="ju0jBYfU7VfWNbvxmCAG-9" value="Has" style="shape=rhombus;perimeter=rhombusPerimeter;whiteSpace=wrap;html=1;align=center;rounded=1;" vertex="1" parent="1">
          <mxGeometry x="440" y="360" width="120" height="60" as="geometry" />
        </mxCell>
        <mxCell id="ju0jBYfU7VfWNbvxmCAG-10" value="" style="endArrow=none;html=1;rounded=1;entryX=0.25;entryY=0;entryDx=0;entryDy=0;" edge="1" parent="1" target="ju0jBYfU7VfWNbvxmCAG-6">
          <mxGeometry relative="1" as="geometry">
            <mxPoint x="500" y="420" as="sourcePoint" />
            <mxPoint x="630" y="420" as="targetPoint" />
          </mxGeometry>
        </mxCell>
        <mxCell id="ju0jBYfU7VfWNbvxmCAG-11" value="1" style="resizable=0;html=1;whiteSpace=wrap;align=right;verticalAlign=bottom;rounded=1;" connectable="0" vertex="1" parent="ju0jBYfU7VfWNbvxmCAG-10">
          <mxGeometry x="1" relative="1" as="geometry">
            <mxPoint x="15" y="-10" as="offset" />
          </mxGeometry>
        </mxCell>
        <mxCell id="ju0jBYfU7VfWNbvxmCAG-12" value="" style="endArrow=none;html=1;rounded=1;exitX=1;exitY=0.5;exitDx=0;exitDy=0;entryX=0;entryY=1;entryDx=0;entryDy=0;" edge="1" parent="1" source="ju0jBYfU7VfWNbvxmCAG-9" target="ju0jBYfU7VfWNbvxmCAG-1">
          <mxGeometry relative="1" as="geometry">
            <mxPoint x="330" y="310" as="sourcePoint" />
            <mxPoint x="490" y="310" as="targetPoint" />
          </mxGeometry>
        </mxCell>
        <mxCell id="ju0jBYfU7VfWNbvxmCAG-13" value="M" style="resizable=0;html=1;whiteSpace=wrap;align=right;verticalAlign=bottom;rounded=1;" connectable="0" vertex="1" parent="ju0jBYfU7VfWNbvxmCAG-12">
          <mxGeometry x="1" relative="1" as="geometry">
            <mxPoint x="30" y="20" as="offset" />
          </mxGeometry>
        </mxCell>
        <mxCell id="ju0jBYfU7VfWNbvxmCAG-16" value="" style="endArrow=none;html=1;rounded=1;entryX=0.051;entryY=0.495;entryDx=0;entryDy=0;exitX=0.91;exitY=-0.075;exitDx=0;exitDy=0;exitPerimeter=0;entryPerimeter=0;" edge="1" parent="1" source="PTV88E-6Afp1OJII5fz0-6" target="ju0jBYfU7VfWNbvxmCAG-9">
          <mxGeometry relative="1" as="geometry">
            <mxPoint x="310" y="450" as="sourcePoint" />
            <mxPoint x="470" y="450" as="targetPoint" />
          </mxGeometry>
        </mxCell>
        <mxCell id="ju0jBYfU7VfWNbvxmCAG-17" value="M" style="resizable=0;html=1;whiteSpace=wrap;align=left;verticalAlign=bottom;rounded=1;" connectable="0" vertex="1" parent="ju0jBYfU7VfWNbvxmCAG-16">
          <mxGeometry x="-1" relative="1" as="geometry">
            <mxPoint x="-11" y="-7" as="offset" />
          </mxGeometry>
        </mxCell>
        <mxCell id="ju0jBYfU7VfWNbvxmCAG-18" value="N" style="resizable=0;html=1;whiteSpace=wrap;align=right;verticalAlign=bottom;rounded=1;" connectable="0" vertex="1" parent="ju0jBYfU7VfWNbvxmCAG-16">
          <mxGeometry x="1" relative="1" as="geometry">
            <mxPoint x="-10" y="10" as="offset" />
          </mxGeometry>
        </mxCell>
        <mxCell id="ju0jBYfU7VfWNbvxmCAG-19" value="OrderBuy" style="whiteSpace=wrap;html=1;align=center;rounded=1;" vertex="1" parent="1">
          <mxGeometry x="-80" y="510" width="100" height="40" as="geometry" />
        </mxCell>
        <mxCell id="ju0jBYfU7VfWNbvxmCAG-20" value="Has" style="shape=rhombus;perimeter=rhombusPerimeter;whiteSpace=wrap;html=1;align=center;rounded=1;" vertex="1" parent="1">
          <mxGeometry x="-150" y="380" width="120" height="60" as="geometry" />
        </mxCell>
        <mxCell id="ju0jBYfU7VfWNbvxmCAG-21" value="" style="endArrow=none;html=1;rounded=1;exitX=0.25;exitY=0;exitDx=0;exitDy=0;entryX=0.5;entryY=1;entryDx=0;entryDy=0;" edge="1" parent="1" source="ju0jBYfU7VfWNbvxmCAG-19" target="ju0jBYfU7VfWNbvxmCAG-20">
          <mxGeometry relative="1" as="geometry">
            <mxPoint x="-280" y="320" as="sourcePoint" />
            <mxPoint x="-50" y="440" as="targetPoint" />
          </mxGeometry>
        </mxCell>
        <mxCell id="ju0jBYfU7VfWNbvxmCAG-22" value="1" style="resizable=0;html=1;whiteSpace=wrap;align=right;verticalAlign=bottom;rounded=1;" connectable="0" vertex="1" parent="ju0jBYfU7VfWNbvxmCAG-21">
          <mxGeometry x="1" relative="1" as="geometry">
            <mxPoint x="20" y="20" as="offset" />
          </mxGeometry>
        </mxCell>
        <mxCell id="ju0jBYfU7VfWNbvxmCAG-23" value="" style="endArrow=none;html=1;rounded=1;exitX=0.5;exitY=0;exitDx=0;exitDy=0;entryX=0.25;entryY=1;entryDx=0;entryDy=0;" edge="1" parent="1" source="ju0jBYfU7VfWNbvxmCAG-20" target="ju0jBYfU7VfWNbvxmCAG-3">
          <mxGeometry relative="1" as="geometry">
            <mxPoint x="10" y="410" as="sourcePoint" />
            <mxPoint x="180" y="410" as="targetPoint" />
          </mxGeometry>
        </mxCell>
        <mxCell id="ju0jBYfU7VfWNbvxmCAG-24" value="N" style="resizable=0;html=1;whiteSpace=wrap;align=right;verticalAlign=bottom;rounded=1;" connectable="0" vertex="1" parent="ju0jBYfU7VfWNbvxmCAG-23">
          <mxGeometry x="1" relative="1" as="geometry">
            <mxPoint x="-45" y="100" as="offset" />
          </mxGeometry>
        </mxCell>
        <mxCell id="ju0jBYfU7VfWNbvxmCAG-25" value="" style="endArrow=none;html=1;rounded=1;entryX=0;entryY=0.5;entryDx=0;entryDy=0;exitX=0.964;exitY=0.507;exitDx=0;exitDy=0;exitPerimeter=0;" edge="1" parent="1" source="ju0jBYfU7VfWNbvxmCAG-20" target="PTV88E-6Afp1OJII5fz0-6">
          <mxGeometry relative="1" as="geometry">
            <mxPoint x="-30" y="410" as="sourcePoint" />
            <mxPoint x="620" y="330" as="targetPoint" />
          </mxGeometry>
        </mxCell>
        <mxCell id="ju0jBYfU7VfWNbvxmCAG-26" value="N" style="resizable=0;html=1;whiteSpace=wrap;align=right;verticalAlign=bottom;rounded=1;" connectable="0" vertex="1" parent="ju0jBYfU7VfWNbvxmCAG-25">
          <mxGeometry x="1" relative="1" as="geometry">
            <mxPoint x="-250" y="-80" as="offset" />
          </mxGeometry>
        </mxCell>
        <mxCell id="ju0jBYfU7VfWNbvxmCAG-27" value="N" style="resizable=0;html=1;whiteSpace=wrap;align=right;verticalAlign=bottom;rounded=1;" connectable="0" vertex="1" parent="1">
          <mxGeometry x="269.9963970178675" y="429.99669904145753" as="geometry" />
        </mxCell>
        <mxCell id="ju0jBYfU7VfWNbvxmCAG-28" value="" style="endArrow=none;html=1;rounded=1;exitX=1;exitY=0;exitDx=0;exitDy=0;entryX=0;entryY=0.5;entryDx=0;entryDy=0;" edge="1" parent="1" source="ju0jBYfU7VfWNbvxmCAG-20" target="PTV88E-6Afp1OJII5fz0-1">
          <mxGeometry relative="1" as="geometry">
            <mxPoint x="140" y="280" as="sourcePoint" />
            <mxPoint x="300" y="280" as="targetPoint" />
          </mxGeometry>
        </mxCell>
        <mxCell id="ju0jBYfU7VfWNbvxmCAG-29" value="N" style="resizable=0;html=1;whiteSpace=wrap;align=right;verticalAlign=bottom;rounded=1;" connectable="0" vertex="1" parent="ju0jBYfU7VfWNbvxmCAG-28">
          <mxGeometry x="1" relative="1" as="geometry">
            <mxPoint x="-260" y="130" as="offset" />
          </mxGeometry>
        </mxCell>
      </root>
    </mxGraphModel>
  </diagram>
</mxfile>
